<svg width="40" height="40" viewBox="0 0 60 60" fill="none" xmlns="http://www.w3.org/2000/svg">
<path d="M30.544 0C14.2775 0 1.08937 13.085 1.08937 29.2275C1.08937 34.7494 2.63384 39.9137 5.31603 44.3195L0 60L16.3077 54.8194C20.5275 57.1343 25.3807 58.455 30.544 58.455C46.8127 58.455 60 45.3682 60 29.2275C60 13.085 46.8127 0 30.544 0ZM45.1907 40.3272C44.4978 42.0451 41.3638 43.6129 39.981 43.6851C38.5997 43.7583 38.5603 44.7557 31.0292 41.4841C23.4991 38.2117 18.9687 30.255 18.6115 29.7426C18.2541 29.2321 15.6946 25.5845 15.8326 21.9138C15.9717 18.2424 17.9818 16.5103 18.6992 15.7899C19.4159 15.0684 20.2375 14.9392 20.7392 14.931C21.3323 14.9214 21.7164 14.9133 22.1553 14.9296C22.5937 14.9462 23.2524 14.8378 23.8227 16.3544C24.3927 17.8709 25.757 21.5981 25.9315 21.9779C26.1059 22.3582 26.2138 22.7984 25.9452 23.2866C25.6757 23.7758 25.5378 24.0814 25.1468 24.503C24.7537 24.9246 24.32 25.4462 23.9693 25.7685C23.5783 26.1254 23.1698 26.5148 23.5809 27.2778C23.9918 28.0402 25.4095 30.5397 27.5692 32.5996C30.3449 35.2475 32.7386 36.1258 33.4752 36.5259C34.2138 36.9283 34.6546 36.8835 35.1126 36.4015C35.5685 35.9195 37.0732 34.2927 37.6031 33.5664C38.1328 32.8381 38.6292 32.9807 39.3096 33.2545C39.9897 33.5293 43.6164 35.4718 44.3551 35.8729C45.0931 36.2732 45.5863 36.4795 45.7627 36.797C45.9391 37.1158 45.8834 38.6092 45.1907 40.3272Z" fill="url(#paint0_linear_71_30)"/>
<defs>
<linearGradient id="paint0_linear_71_30" x1="0" y1="30" x2="60" y2="30" gradientUnits="userSpaceOnUse">
<stop stop-color="#56AB2F"/>
<stop offset="1" stop-color="#A8E063"/>
</linearGradient>
</defs>
</svg>
